<svg width="66" height="27" viewBox="0 0 66 27" fill="none" xmlns="http://www.w3.org/2000/svg">
<path d="M12.0753 6.23438C11.9825 5.366 11.5914 4.68987 10.902 4.20597C10.2192 3.72206 9.33097 3.48011 8.23722 3.48011C7.46828 3.48011 6.80871 3.59612 6.25852 3.82812C5.70833 4.06013 5.28741 4.375 4.99574 4.77273C4.70407 5.17045 4.55492 5.62453 4.5483 6.13494C4.5483 6.55919 4.64441 6.92708 4.83665 7.23864C5.03551 7.55019 5.30398 7.81534 5.64205 8.03409C5.98011 8.24621 6.35464 8.42519 6.76562 8.57102C7.17661 8.71686 7.59091 8.83949 8.00852 8.93892L9.91761 9.41619C10.6866 9.59517 11.4257 9.83712 12.1349 10.142C12.8509 10.447 13.4905 10.8314 14.054 11.2955C14.6241 11.7595 15.0748 12.3196 15.4062 12.9759C15.7377 13.6321 15.9034 14.401 15.9034 15.2827C15.9034 16.4759 15.5985 17.5265 14.9886 18.4347C14.3788 19.3362 13.4972 20.0421 12.3438 20.5526C11.197 21.0563 9.80824 21.3082 8.17756 21.3082C6.59328 21.3082 5.2178 21.063 4.05114 20.5724C2.8911 20.0819 1.98295 19.366 1.3267 18.4247C0.677083 17.4834 0.325758 16.3366 0.272727 14.9844H3.90199C3.95502 15.6937 4.17377 16.2836 4.55824 16.7543C4.94271 17.2249 5.44318 17.5762 6.05966 17.8082C6.68277 18.0402 7.37879 18.1562 8.14773 18.1562C8.94981 18.1562 9.65246 18.0369 10.2557 17.7983C10.8655 17.553 11.3428 17.215 11.6875 16.7841C12.0322 16.3466 12.2079 15.8362 12.2145 15.2528C12.2079 14.7225 12.0521 14.285 11.7472 13.9403C11.4422 13.589 11.0147 13.2973 10.4645 13.0653C9.92093 12.8267 9.28456 12.6146 8.5554 12.429L6.23864 11.8324C4.56155 11.4015 3.2358 10.7486 2.26136 9.87358C1.29356 8.99195 0.809659 7.82197 0.809659 6.36364C0.809659 5.16382 1.13447 4.11316 1.78409 3.21165C2.44034 2.31013 3.33191 1.6108 4.45881 1.11364C5.5857 0.609848 6.86174 0.357954 8.28693 0.357954C9.73201 0.357954 10.9981 0.609848 12.0852 1.11364C13.179 1.6108 14.0374 2.3035 14.6605 3.19176C15.2836 4.07339 15.6051 5.08759 15.625 6.23438H12.0753ZM23.4279 21.3082C22.4601 21.3082 21.5884 21.1359 20.8129 20.7912C20.0439 20.4399 19.4341 19.9228 18.9833 19.2401C18.5392 18.5573 18.3171 17.7154 18.3171 16.7145C18.3171 15.8527 18.4762 15.1402 18.7944 14.5767C19.1126 14.0133 19.5468 13.5625 20.0969 13.2244C20.6471 12.8864 21.2669 12.6312 21.9563 12.4588C22.6523 12.2798 23.3716 12.1506 24.114 12.071C25.0089 11.9782 25.7347 11.8954 26.2915 11.8224C26.8484 11.7429 27.2527 11.6236 27.5046 11.4645C27.7631 11.2988 27.8924 11.0436 27.8924 10.6989V10.6392C27.8924 9.89015 27.6703 9.31013 27.2262 8.89915C26.7821 8.48816 26.1424 8.28267 25.3072 8.28267C24.4255 8.28267 23.7262 8.47491 23.2092 8.85938C22.6987 9.24384 22.354 9.69792 22.1751 10.2216L18.8143 9.74432C19.0794 8.81629 19.5169 8.04072 20.1268 7.41761C20.7366 6.78788 21.4824 6.31723 22.364 6.00568C23.2456 5.6875 24.2201 5.52841 25.2873 5.52841C26.0231 5.52841 26.7556 5.61458 27.4847 5.78693C28.2139 5.95928 28.8801 6.24432 29.4833 6.64204C30.0865 7.03314 30.5704 7.56676 30.935 8.2429C31.3062 8.91903 31.4918 9.7642 31.4918 10.7784V21H28.0316V18.902H27.9123C27.6935 19.3262 27.3853 19.724 26.9876 20.0952C26.5965 20.4598 26.1026 20.7547 25.506 20.9801C24.9161 21.1989 24.2234 21.3082 23.4279 21.3082ZM24.3626 18.6634C25.0851 18.6634 25.7115 18.5208 26.2418 18.2358C26.7721 17.9441 27.1798 17.5597 27.4648 17.0824C27.7565 16.6051 27.9023 16.0848 27.9023 15.5213V13.7216C27.7897 13.8144 27.5974 13.9006 27.3256 13.9801C27.0605 14.0597 26.7622 14.1293 26.4308 14.1889C26.0993 14.2486 25.7712 14.3016 25.4464 14.348C25.1216 14.3944 24.8398 14.4342 24.6012 14.4673C24.0643 14.5402 23.5837 14.6596 23.1594 14.8253C22.7352 14.991 22.4005 15.223 22.1552 15.5213C21.9099 15.813 21.7873 16.1908 21.7873 16.6548C21.7873 17.3177 22.0292 17.8182 22.5131 18.1562C22.997 18.4943 23.6135 18.6634 24.3626 18.6634ZM35.1112 26.7273V5.72727H38.6509V8.25284H38.8597C39.0453 7.88163 39.3072 7.48722 39.6452 7.0696C39.9833 6.64536 40.4407 6.28409 41.0174 5.98579C41.5941 5.68087 42.3299 5.52841 43.2248 5.52841C44.4047 5.52841 45.4686 5.83002 46.4165 6.43324C47.3711 7.02983 48.1268 7.91477 48.6836 9.08807C49.247 10.2547 49.5288 11.6866 49.5288 13.3835C49.5288 15.0606 49.2537 16.4858 48.7035 17.6591C48.1533 18.8324 47.4042 19.7273 46.4563 20.3438C45.5084 20.9602 44.4345 21.2685 43.2347 21.2685C42.3597 21.2685 41.6339 21.1226 41.0572 20.831C40.4805 20.5393 40.0165 20.188 39.6651 19.777C39.3204 19.3594 39.052 18.965 38.8597 18.5938H38.7106V26.7273H35.1112ZM38.641 13.3636C38.641 14.3513 38.7802 15.2164 39.0586 15.9588C39.3436 16.7012 39.7513 17.2812 40.2816 17.6989C40.8185 18.1098 41.4682 18.3153 42.2305 18.3153C43.0259 18.3153 43.6921 18.1032 44.229 17.679C44.766 17.2481 45.1703 16.6615 45.4421 15.919C45.7205 15.17 45.8597 14.3182 45.8597 13.3636C45.8597 12.4157 45.7238 11.5739 45.4521 10.8381C45.1803 10.1023 44.7759 9.52557 44.239 9.10795C43.7021 8.69034 43.0326 8.48153 42.2305 8.48153C41.4615 8.48153 40.8086 8.68371 40.2717 9.08807C39.7347 9.49242 39.3271 10.0592 39.0487 10.7884C38.7769 11.5175 38.641 12.3759 38.641 13.3636ZM57.006 21.3082C56.0382 21.3082 55.1665 21.1359 54.391 20.7912C53.622 20.4399 53.0122 19.9228 52.5614 19.2401C52.1173 18.5573 51.8952 17.7154 51.8952 16.7145C51.8952 15.8527 52.0543 15.1402 52.3725 14.5767C52.6907 14.0133 53.1249 13.5625 53.6751 13.2244C54.2253 12.8864 54.8451 12.6312 55.5344 12.4588C56.2305 12.2798 56.9497 12.1506 57.6921 12.071C58.587 11.9782 59.3129 11.8954 59.8697 11.8224C60.4265 11.7429 60.8308 11.6236 61.0827 11.4645C61.3413 11.2988 61.4705 11.0436 61.4705 10.6989V10.6392C61.4705 9.89015 61.2485 9.31013 60.8043 8.89915C60.3602 8.48816 59.7205 8.28267 58.8853 8.28267C58.0037 8.28267 57.3043 8.47491 56.7873 8.85938C56.2769 9.24384 55.9322 9.69792 55.7532 10.2216L52.3924 9.74432C52.6576 8.81629 53.0951 8.04072 53.7049 7.41761C54.3147 6.78788 55.0605 6.31723 55.9421 6.00568C56.8237 5.6875 57.7982 5.52841 58.8654 5.52841C59.6012 5.52841 60.3337 5.61458 61.0629 5.78693C61.792 5.95928 62.4582 6.24432 63.0614 6.64204C63.6647 7.03314 64.1486 7.56676 64.5131 8.2429C64.8844 8.91903 65.07 9.7642 65.07 10.7784V21H61.6097V18.902H61.4904C61.2717 19.3262 60.9634 19.724 60.5657 20.0952C60.1746 20.4598 59.6808 20.7547 59.0842 20.9801C58.4942 21.1989 57.8015 21.3082 57.006 21.3082ZM57.9407 18.6634C58.6632 18.6634 59.2897 18.5208 59.82 18.2358C60.3503 17.9441 60.7579 17.5597 61.043 17.0824C61.3346 16.6051 61.4805 16.0848 61.4805 15.5213V13.7216C61.3678 13.8144 61.1755 13.9006 60.9038 13.9801C60.6386 14.0597 60.3403 14.1293 60.0089 14.1889C59.6774 14.2486 59.3493 14.3016 59.0245 14.348C58.6997 14.3944 58.418 14.4342 58.1793 14.4673C57.6424 14.5402 57.1618 14.6596 56.7376 14.8253C56.3133 14.991 55.9786 15.223 55.7333 15.5213C55.488 15.813 55.3654 16.1908 55.3654 16.6548C55.3654 17.3177 55.6074 17.8182 56.0913 18.1562C56.5752 18.4943 57.1916 18.6634 57.9407 18.6634Z" fill="white"/>
</svg>
